<svg width="151" height="19" viewBox="0 0 151 19" fill="none" xmlns="http://www.w3.org/2000/svg">
<path d="M0.2 18V16.416C0.568 16.4 0.872 16.352 1.112 16.272C1.368 16.192 1.56 16.008 1.688 15.72C1.832 15.432 1.904 14.968 1.904 14.328V5.136C1.904 4.704 1.912 4.288 1.928 3.888C1.96 3.488 1.984 3.184 2 2.976C1.744 2.992 1.424 3.008 1.04 3.024C0.656 3.024 0.376 3.032 0.2 3.048V1.2H16.808V2.784C16.456 2.8 16.152 2.848 15.896 2.928C15.64 3.008 15.44 3.192 15.296 3.48C15.168 3.752 15.104 4.216 15.104 4.872V14.064C15.104 14.496 15.096 14.912 15.08 15.312C15.064 15.712 15.04 16.016 15.008 16.224C15.264 16.192 15.584 16.176 15.968 16.176C16.368 16.16 16.648 16.152 16.808 16.152V18H9.92V16.416C10.288 16.4 10.592 16.352 10.832 16.272C11.088 16.192 11.28 16.008 11.408 15.72C11.552 15.432 11.624 14.968 11.624 14.328V3L7.04 3.072C6.688 3.088 6.384 3.136 6.128 3.216C5.888 3.296 5.704 3.48 5.576 3.768C5.448 4.056 5.384 4.52 5.384 5.16V14.064C5.384 14.496 5.376 14.912 5.36 15.312C5.344 15.712 5.32 16.016 5.288 16.224C5.544 16.192 5.864 16.176 6.248 16.176C6.648 16.16 6.928 16.152 7.088 16.152V18H0.2ZM19.2078 16.416C19.5758 16.4 19.8798 16.352 20.1198 16.272C20.3758 16.192 20.5678 16.008 20.6958 15.72C20.8398 15.432 20.9118 14.968 20.9118 14.328V5.136C20.9118 4.704 20.9198 4.288 20.9358 3.888C20.9678 3.488 20.9918 3.184 21.0078 2.976C20.7518 2.992 20.4318 3.008 20.0478 3.024C19.6638 3.024 19.3838 3.032 19.2078 3.048V1.2C20.3438 1.184 21.4798 1.176 22.6158 1.176C23.7518 1.176 24.8878 1.168 26.0238 1.152C27.4318 1.136 28.6558 1.32 29.6958 1.704C30.7518 2.088 31.5598 2.68 32.1198 3.48C32.6958 4.28 32.9678 5.32 32.9358 6.6C32.9198 7.448 32.6558 8.272 32.1438 9.072C31.6478 9.872 30.8958 10.536 29.8878 11.064C28.8958 11.592 27.6398 11.88 26.1198 11.928C25.4638 11.944 24.8878 11.944 24.3918 11.928V14.04C24.3918 14.488 24.3838 14.912 24.3678 15.312C24.3518 15.712 24.3278 16.016 24.2958 16.224C24.4718 16.208 24.6958 16.2 24.9678 16.2C25.2398 16.184 25.5038 16.176 25.7598 16.176C26.0318 16.16 26.2238 16.152 26.3358 16.152V18H19.2078V16.416ZM24.3918 10.128C24.7278 10.176 25.0878 10.2 25.4718 10.2C26.7998 10.2 27.7518 9.872 28.3278 9.216C28.9198 8.544 29.2158 7.6 29.2158 6.384C29.2158 5.584 29.1038 4.944 28.8798 4.464C28.6718 3.984 28.3998 3.632 28.0638 3.408C27.7278 3.168 27.3758 3.016 27.0078 2.952C26.6398 2.872 26.3038 2.832 25.9998 2.832C25.5038 2.832 25.1118 2.936 24.8238 3.144C24.5358 3.352 24.3918 3.88 24.3918 4.728V10.128ZM41.4239 2.784C41.0719 2.8 40.7679 2.848 40.5119 2.928C40.2559 3.008 40.0559 3.192 39.9119 3.48C39.7839 3.752 39.7199 4.216 39.7199 4.872V12.192L46.6319 4.056C46.6479 3.592 46.6719 3.232 46.7039 2.976C46.4479 2.992 46.1279 3.008 45.7439 3.024C45.3599 3.024 45.0799 3.032 44.9039 3.048V1.2H51.7919V2.784C51.4399 2.8 51.1359 2.848 50.8799 2.928C50.6239 3.008 50.4239 3.192 50.2799 3.48C50.1519 3.752 50.0879 4.216 50.0879 4.872V14.064C50.0879 14.496 50.0799 14.912 50.0639 15.312C50.0479 15.712 50.0239 16.016 49.9919 16.224C50.2479 16.192 50.5679 16.176 50.9519 16.176C51.3519 16.16 51.6319 16.152 51.7919 16.152V18H44.9039V16.416C45.2719 16.4 45.5759 16.352 45.8159 16.272C46.0719 16.192 46.2639 16.008 46.3919 15.72C46.5359 15.432 46.6079 14.968 46.6079 14.328V6.648L39.7199 14.832C39.6879 15.44 39.6559 15.904 39.6239 16.224C39.8799 16.192 40.1999 16.176 40.5839 16.176C40.9839 16.16 41.2639 16.152 41.4239 16.152V18H34.5359V16.416C34.9039 16.4 35.2079 16.352 35.4479 16.272C35.7039 16.192 35.8959 16.008 36.0239 15.72C36.1679 15.432 36.2399 14.968 36.2399 14.328V5.136C36.2399 4.704 36.2479 4.288 36.2639 3.888C36.2959 3.488 36.3199 3.184 36.3359 2.976C36.0799 2.992 35.7599 3.008 35.3759 3.024C34.9919 3.024 34.7119 3.032 34.5359 3.048V1.2H41.4239V2.784ZM54.2 18V16.416C54.568 16.4 54.872 16.352 55.112 16.272C55.368 16.192 55.56 16.008 55.688 15.72C55.832 15.432 55.904 14.968 55.904 14.328V5.136C55.904 4.704 55.912 4.288 55.928 3.888C55.96 3.488 55.984 3.184 56 2.976C55.744 2.992 55.424 3.008 55.04 3.024C54.656 3.024 54.376 3.032 54.2 3.048V1.2C55.304 1.184 56.408 1.176 57.512 1.176C58.632 1.176 59.744 1.168 60.848 1.152C62.768 1.136 64.288 1.496 65.408 2.232C66.544 2.952 67.072 4.048 66.992 5.52C66.944 6.208 66.64 6.872 66.08 7.512C65.52 8.136 64.672 8.6 63.536 8.904V8.928C65.136 9.184 66.312 9.72 67.064 10.536C67.816 11.336 68.192 12.232 68.192 13.224C68.192 14.264 67.936 15.144 67.424 15.864C66.928 16.568 66.24 17.104 65.36 17.472C64.48 17.824 63.48 18 62.36 18H54.2ZM59.384 8.568L60.632 8.544C61.64 8.512 62.336 8.192 62.72 7.584C63.12 6.96 63.32 6.208 63.32 5.328C63.32 4.688 63.192 4.192 62.936 3.84C62.68 3.472 62.36 3.208 61.976 3.048C61.592 2.888 61.192 2.816 60.776 2.832C60.52 2.832 60.288 2.872 60.08 2.952C59.872 3.032 59.704 3.216 59.576 3.504C59.448 3.776 59.384 4.224 59.384 4.848V8.568ZM59.288 16.296C59.704 16.296 60.104 16.296 60.488 16.296C60.872 16.296 61.248 16.288 61.616 16.272C62.592 16.224 63.304 15.912 63.752 15.336C64.2 14.76 64.424 14.032 64.424 13.152C64.424 12.416 64.272 11.84 63.968 11.424C63.664 10.992 63.272 10.688 62.792 10.512C62.328 10.336 61.84 10.248 61.328 10.248C60.928 10.248 60.584 10.248 60.296 10.248C60.008 10.248 59.704 10.256 59.384 10.272V14.184C59.384 14.616 59.376 15.024 59.36 15.408C59.344 15.792 59.32 16.088 59.288 16.296ZM78.2272 12.216C78.2272 11.544 78.1232 11.064 77.9152 10.776C77.7072 10.472 77.4192 10.28 77.0512 10.2C76.6992 10.12 76.3072 10.088 75.8752 10.104L75.2512 10.128V14.064C75.2512 14.496 75.2432 14.904 75.2272 15.288C75.2112 15.672 75.1872 15.968 75.1552 16.176H78.3712C78.8512 16.176 79.3152 16.072 79.7632 15.864C80.2112 15.64 80.5792 15.28 80.8672 14.784C81.1552 14.272 81.2992 13.584 81.2992 12.72H82.8592L82.7392 18H70.0672V16.416C70.4352 16.4 70.7392 16.352 70.9792 16.272C71.2352 16.192 71.4272 16.008 71.5552 15.72C71.6992 15.432 71.7712 14.968 71.7712 14.328V5.136C71.7712 4.704 71.7792 4.288 71.7952 3.888C71.8272 3.488 71.8512 3.184 71.8672 2.976C71.6112 2.992 71.2912 3.008 70.9072 3.024C70.5232 3.024 70.2432 3.032 70.0672 3.048V1.2H82.0672L82.2112 5.856H80.6272C80.6272 4.976 80.4752 4.312 80.1712 3.864C79.8672 3.416 79.4912 3.12 79.0432 2.976C78.5952 2.816 78.1552 2.744 77.7232 2.76L76.8592 2.784C76.5232 2.784 76.2352 2.832 75.9952 2.928C75.7552 3.008 75.5712 3.2 75.4432 3.504C75.3152 3.792 75.2512 4.248 75.2512 4.872V8.472H78.0592L77.9632 6.384H79.8112V12.216H78.2272ZM97.4518 6.624C97.4518 5.328 97.1878 4.368 96.6598 3.744C96.1318 3.104 95.4118 2.792 94.4998 2.808H93.3478V14.064C93.3478 14.496 93.3398 14.912 93.3238 15.312C93.3078 15.712 93.2838 16.016 93.2518 16.224C93.5238 16.192 93.8678 16.176 94.2838 16.176C94.7158 16.16 95.0118 16.152 95.1718 16.152V18H88.1638V16.416C88.5318 16.4 88.8358 16.352 89.0758 16.272C89.3318 16.192 89.5238 16.008 89.6518 15.72C89.7958 15.432 89.8678 14.968 89.8678 14.328V2.832H88.7638C87.8518 2.848 87.1318 3.16 86.6038 3.768C86.0758 4.376 85.8118 5.328 85.8118 6.624H84.2278L84.3478 1.2H98.8918L99.0358 6.624H97.4518ZM100.653 18V16.416C101.021 16.4 101.325 16.352 101.565 16.272C101.821 16.192 102.013 16.008 102.141 15.72C102.285 15.432 102.357 14.968 102.357 14.328V5.136C102.357 4.704 102.365 4.288 102.381 3.888C102.413 3.488 102.437 3.184 102.453 2.976C102.197 2.992 101.877 3.008 101.493 3.024C101.109 3.024 100.829 3.032 100.653 3.048V1.2H107.541V2.784C107.189 2.8 106.885 2.848 106.629 2.928C106.373 3.008 106.173 3.192 106.029 3.48C105.901 3.752 105.837 4.216 105.837 4.872V8.616H112.437V5.136C112.437 4.704 112.445 4.288 112.461 3.888C112.477 3.488 112.501 3.184 112.533 2.976C112.277 2.992 111.957 3.008 111.573 3.024C111.189 3.024 110.909 3.032 110.733 3.048V1.2H117.621V2.784C117.269 2.8 116.965 2.848 116.709 2.928C116.453 3.008 116.253 3.192 116.109 3.48C115.981 3.752 115.917 4.216 115.917 4.872V14.064C115.917 14.496 115.909 14.912 115.893 15.312C115.877 15.712 115.853 16.016 115.821 16.224C116.077 16.192 116.397 16.176 116.781 16.176C117.181 16.16 117.461 16.152 117.621 16.152V18H110.733V16.416C111.101 16.4 111.405 16.352 111.645 16.272C111.901 16.192 112.093 16.008 112.221 15.72C112.365 15.432 112.437 14.968 112.437 14.328V10.44L105.837 10.512V14.064C105.837 14.496 105.829 14.912 105.813 15.312C105.797 15.712 105.773 16.016 105.741 16.224C105.997 16.192 106.317 16.176 106.701 16.176C107.101 16.16 107.381 16.152 107.541 16.152V18H100.653ZM127.723 18.384C126.203 18.384 124.907 18.128 123.835 17.616C122.779 17.104 121.923 16.424 121.267 15.576C120.611 14.712 120.131 13.76 119.827 12.72C119.523 11.68 119.371 10.64 119.371 9.6C119.371 8.592 119.539 7.576 119.875 6.552C120.227 5.512 120.747 4.56 121.435 3.696C122.139 2.832 123.019 2.136 124.075 1.608C125.131 1.08 126.371 0.816 127.795 0.816C129.251 0.816 130.507 1.08 131.563 1.608C132.619 2.136 133.483 2.84 134.155 3.72C134.827 4.584 135.323 5.528 135.643 6.552C135.979 7.576 136.147 8.592 136.147 9.6C136.147 10.592 135.971 11.6 135.619 12.624C135.283 13.648 134.763 14.6 134.059 15.48C133.371 16.344 132.499 17.048 131.443 17.592C130.387 18.12 129.147 18.384 127.723 18.384ZM127.987 16.632C128.819 16.632 129.515 16.432 130.075 16.032C130.635 15.616 131.083 15.08 131.419 14.424C131.755 13.768 131.995 13.056 132.139 12.288C132.283 11.504 132.355 10.744 132.355 10.008C132.355 8.536 132.179 7.24 131.827 6.12C131.475 5 130.939 4.12 130.219 3.48C129.515 2.84 128.603 2.536 127.483 2.568C126.667 2.584 125.979 2.808 125.419 3.24C124.859 3.656 124.411 4.2 124.075 4.872C123.739 5.528 123.499 6.248 123.355 7.032C123.211 7.816 123.139 8.576 123.139 9.312C123.139 10.064 123.219 10.864 123.379 11.712C123.555 12.56 123.827 13.36 124.195 14.112C124.563 14.864 125.059 15.472 125.683 15.936C126.307 16.4 127.075 16.632 127.987 16.632ZM146.055 12.216C146.055 11.544 145.951 11.064 145.743 10.776C145.535 10.472 145.247 10.28 144.879 10.2C144.527 10.12 144.135 10.088 143.703 10.104L143.079 10.128V14.064C143.079 14.496 143.071 14.904 143.055 15.288C143.039 15.672 143.015 15.968 142.983 16.176H146.199C146.679 16.176 147.143 16.072 147.591 15.864C148.039 15.64 148.407 15.28 148.695 14.784C148.983 14.272 149.127 13.584 149.127 12.72H150.687L150.567 18H137.895V16.416C138.263 16.4 138.567 16.352 138.807 16.272C139.063 16.192 139.255 16.008 139.383 15.72C139.527 15.432 139.599 14.968 139.599 14.328V5.136C139.599 4.704 139.607 4.288 139.623 3.888C139.655 3.488 139.679 3.184 139.695 2.976C139.439 2.992 139.119 3.008 138.735 3.024C138.351 3.024 138.071 3.032 137.895 3.048V1.2H149.895L150.039 5.856H148.455C148.455 4.976 148.303 4.312 147.999 3.864C147.695 3.416 147.319 3.12 146.871 2.976C146.423 2.816 145.983 2.744 145.551 2.76L144.687 2.784C144.351 2.784 144.063 2.832 143.823 2.928C143.583 3.008 143.399 3.2 143.271 3.504C143.143 3.792 143.079 4.248 143.079 4.872V8.472H145.887L145.791 6.384H147.639V12.216H146.055Z" fill="#2E86AA"/>
</svg>
